 <svg
                  data-v-03b17e97=""
                  width="170"
                  height="80"
                  viewBox="0 0 80 80"
                  fill="none"
                  xmlns="http://www.w3.org/2000/svg"    
                  className="credit-auto"         
                >      
                <style>
                @media(max-width:480px){
                  .credit-auto{
                      width: 210px;
                  }
                }
                </style>    
                  <g data-v-03b17e97="" clipPath="url(#clip0)">
                    <path
                      data-v-03b17e97=""
                      d="M28.8925 45.0494C28.8925 41.7027 24.1718 39.1791 17.9116 39.1791C11.6514 39.1791 6.93066 41.7027 6.93066 45.0494C6.93066 48.3962 11.6514 50.9198 17.9116 50.9198C24.1718 50.9198 28.8925 48.3962 28.8925 45.0494ZM9.27426 45.0494C9.27426 43.5768 12.56 41.5229 17.9114 41.5229C23.2629 41.5229 26.5486 43.5769 26.5486 45.0494C26.5486 46.5219 23.2629 48.576 17.9114 48.576C12.56 48.576 9.27426 46.5221 9.27426 45.0494Z"
                      fill="url(#paint0_linear)"
                    ></path>
                    <path
                      data-v-03b17e97=""
                      d="M55.816 36.2642C56.4634 36.2642 56.9879 35.7396 56.9879 35.0923C56.9879 34.4449 56.4634 33.9204 55.816 33.9204H33.0454C32.3981 33.9204 31.8735 34.4449 31.8735 35.0923C31.8735 35.7396 32.3981 36.2642 33.0454 36.2642H55.816Z"
                      fill="url(#paint1_linear)"
                    ></path>
                    <path
                      data-v-03b17e97=""
                      d="M71.1767 38.9176V12.6581C71.1767 10.6887 69.5745 9.08667 67.6053 9.08667H3.57141C1.60219 9.08667 0 10.6889 0 12.6581V53.9034C0 55.8728 1.60219 57.4748 3.57141 57.4748H10.6347C11.282 57.4748 11.8066 56.9503 11.8066 56.3029C11.8066 55.6556 11.282 55.131 10.6347 55.131H3.57141C2.89438 55.131 2.34375 54.5804 2.34375 53.9034V27.6507H68.833V37.8426C66.9955 37.1642 65.0102 36.7931 62.9398 36.7931C58.6941 36.7931 54.8059 38.3525 51.8172 40.9281H44.4836C43.8363 40.9281 43.3117 41.4526 43.3117 42.1C43.3117 42.7473 43.8363 43.2718 44.4836 43.2718H49.5675C47.2598 46.182 45.8798 49.8593 45.8798 53.8532C45.8798 54.2831 45.8963 54.7092 45.9277 55.1312H15.3202C14.6728 55.1312 14.1483 55.6557 14.1483 56.3031C14.1483 56.9504 14.6728 57.475 15.3202 57.475H46.2681C47.9334 65.1479 54.7755 70.9134 62.9398 70.9134C66.8291 70.9134 70.4923 69.6381 73.5339 67.2254C74.0409 66.8232 74.1259 66.086 73.7237 65.579C73.3217 65.0721 72.5845 64.987 72.0773 65.3892C69.4545 67.4698 66.2948 68.5695 62.94 68.5695C54.8255 68.5695 48.2237 61.9678 48.2237 53.8531C48.2237 45.7384 54.8255 39.1367 62.94 39.1367C71.0547 39.1367 77.6564 45.7384 77.6564 53.8531C77.6564 56.8612 76.7544 59.7543 75.0477 62.2192C74.6792 62.7512 74.8119 63.4814 75.3439 63.8498C75.8761 64.2184 76.6061 64.0854 76.9745 63.5535C78.9538 60.6946 80 57.3404 80 53.8532C80 47.4315 76.433 41.8279 71.1767 38.9176ZM2.34375 25.307V21.3143H53.4733C54.1206 21.3143 54.6452 20.7898 54.6452 20.1425C54.6452 19.4951 54.1206 18.9706 53.4733 18.9706H2.34375V12.6581C2.34375 11.981 2.89438 11.4304 3.57141 11.4304H67.6052C68.2822 11.4304 68.8328 11.981 68.8328 12.6581V18.9706H58.1586C57.5112 18.9706 56.9867 19.4951 56.9867 20.1425C56.9867 20.7898 57.5112 21.3143 58.1586 21.3143H68.8328V25.307H2.34375Z"
                      fill="url(#paint2_linear)"
                    ></path>
                    <path
                      data-v-03b17e97=""
                      fillRule="evenodd"
                      clipRule="evenodd"
                      d="M69.6484 47.9514C70.1171 48.4201 70.1171 49.1799 69.6484 49.6485L58.4484 60.8485C57.9798 61.3171 57.22 61.3171 56.7514 60.8485C56.2827 60.3799 56.2827 59.6201 56.7514 59.1514L67.9514 47.9514C68.42 47.4828 69.1798 47.4828 69.6484 47.9514Z"
                      fill="url(#paint3_linear)"
                    ></path>
                    <path
                      data-v-03b17e97=""
                      fillRule="evenodd"
                      clipRule="evenodd"
                      d="M56.7514 47.9514C57.22 47.4828 57.9798 47.4828 58.4484 47.9514L69.6484 59.1514C70.1171 59.6201 70.1171 60.3799 69.6484 60.8485C69.1798 61.3171 68.42 61.3171 67.9514 60.8485L56.7514 49.6485C56.2827 49.1799 56.2827 48.4201 56.7514 47.9514Z"
                      fill="url(#paint4_linear)"
                    ></path>
                  </g>
                  <defs data-v-03b17e97="">
                    <linearGradient
                      data-v-03b17e97=""
                      id="paint0_linear"
                      x1="28.8925"
                      y1="39.1791"
                      x2="20.3312"
                      y2="57.5039"
                      gradientUnits="userSpaceOnUse"
                    >
                      <stop data-v-03b17e97="" stopColor="#BD8727"></stop>
                      <stop
                        data-v-03b17e97=""
                        offset="0.483111"
                        stopColor="#FFD574"
                      ></stop>
                      <stop
                        data-v-03b17e97=""
                        offset="0.611179"
                        stopColor="#FECA50"
                      ></stop>
                      <stop
                        data-v-03b17e97=""
                        offset="1"
                        stopColor="#BD8727"
                      ></stop>
                    </linearGradient>
                    <linearGradient
                      data-v-03b17e97=""
                      id="paint1_linear"
                      x1="56.9879"
                      y1="33.9204"
                      x2="56.6268"
                      y2="38.3476"
                      gradientUnits="userSpaceOnUse"
                    >
                      <stop data-v-03b17e97="" stopColor="#BD8727"></stop>
                      <stop
                        data-v-03b17e97=""
                        offset="0.483111"
                        stopColor="#FFD574"
                      ></stop>
                      <stop
                        data-v-03b17e97=""
                        offset="0.611179"
                        stopColor="#FECA50"
                      ></stop>
                      <stop
                        data-v-03b17e97=""
                        offset="1"
                        stopColor="#BD8727"
                      ></stop>
                    </linearGradient>
                    <linearGradient
                      data-v-03b17e97=""
                      id="paint2_linear"
                      x1="80"
                      y1="9.08667"
                      x2="25.4714"
                      y2="89.8203"
                      gradientUnits="userSpaceOnUse"
                    >
                      <stop data-v-03b17e97="" stopColor="#BD8727"></stop>
                      <stop
                        data-v-03b17e97=""
                        offset="0.483111"
                        stopColor="#FFD574"
                      ></stop>
                      <stop
                        data-v-03b17e97=""
                        offset="0.611179"
                        stopColor="#FECA50"
                      ></stop>
                      <stop
                        data-v-03b17e97=""
                        offset="1"
                        stopColor="#BD8727"
                      ></stop>
                    </linearGradient>
                    <linearGradient
                      data-v-03b17e97=""
                      id="paint3_linear"
                      x1="69.9999"
                      y1="47.6"
                      x2="57.1863"
                      y2="62.2619"
                      gradientUnits="userSpaceOnUse"
                    >
                      <stop data-v-03b17e97="" stopColor="#BD8727"></stop>
                      <stop
                        data-v-03b17e97=""
                        offset="0.483111"
                        stopColor="#FFD574"
                      ></stop>
                      <stop
                        data-v-03b17e97=""
                        offset="0.611179"
                        stopColor="#FECA50"
                      ></stop>
                      <stop
                        data-v-03b17e97=""
                        offset="1"
                        stopColor="#BD8727"
                      ></stop>
                    </linearGradient>
                    <linearGradient
                      data-v-03b17e97=""
                      id="paint4_linear"
                      x1="69.9999"
                      y1="47.6"
                      x2="57.1863"
                      y2="62.2619"
                      gradientUnits="userSpaceOnUse"
                    >
                      <stop data-v-03b17e97="" stopColor="#BD8727"></stop>
                      <stop
                        data-v-03b17e97=""
                        offset="0.483111"
                        stopColor="#FFD574"
                      ></stop>
                      <stop
                        data-v-03b17e97=""
                        offset="0.611179"
                        stopColor="#FECA50"
                      ></stop>
                      <stop
                        data-v-03b17e97=""
                        offset="1"
                        stopColor="#BD8727"
                      ></stop>
                    </linearGradient>
                    <clipPath data-v-03b17e97="" id="clip0">
                      <rect
                        data-v-03b17e97=""
                        width="80"
                        height="80"
                        fill="white"
                      ></rect>
                    </clipPath>
                  </defs>
                </svg>