 <svg
                  data-v-03b17e97=""
                  width="100"
                  height="100"
                  viewBox="0 0 80 80"
                  fill="none"
                  xmlns="http://www.w3.org/2000/svg"
               
                >
                  <path
                    data-v-03b17e97=""
                    fillRule="evenodd"
                    clipRule="evenodd"
                    d="M28.395 5.20002C28.7238 5.19869 29.0387 5.33233 29.2662 5.56973L45.1058 22.098C45.5644 22.5765 45.5482 23.3361 45.0697 23.7947C44.5912 24.2532 43.8316 24.237 43.373 23.7586L28.4069 8.14174L4.78054 33.2H17.1998C17.8626 33.2 18.3998 33.7373 18.3998 34.4V50.4C18.3998 51.0628 17.8626 51.6 17.1998 51.6C16.5371 51.6 15.9998 51.0628 15.9998 50.4V35.6H1.99983C1.52089 35.6 1.08782 35.3152 0.898048 34.8755C0.70828 34.4357 0.798166 33.9253 1.12673 33.5768L27.5267 5.5768C27.7523 5.33756 28.0661 5.20136 28.395 5.20002Z"
                    fill="url(#paint0_linear)"
                  ></path>
                  <path
                    data-v-03b17e97=""
                    fillRule="evenodd"
                    clipRule="evenodd"
                    d="M17.2 62C17.8627 62 18.4 62.5373 18.4 63.2V69.2H38.8C39.4627 69.2 40 69.7373 40 70.4C40 71.0627 39.4627 71.6 38.8 71.6H17.2C16.5373 71.6 16 71.0627 16 70.4V63.2C16 62.5373 16.5373 62 17.2 62Z"
                    fill="url(#paint1_linear)"
                  ></path>
                  <path
                    data-v-03b17e97=""
                    d="M18.4002 56.8C18.4002 57.6836 17.6839 58.4 16.8002 58.4C15.9165 58.4 15.2002 57.6836 15.2002 56.8C15.2002 55.9163 15.9165 55.2 16.8002 55.2C17.6839 55.2 18.4002 55.9163 18.4002 56.8Z"
                    fill="url(#paint2_linear)"
                  ></path>
                  <path
                    data-v-03b17e97=""
                    fillRule="evenodd"
                    clipRule="evenodd"
                    d="M52.8 66.4C62.962 66.4 71.2 58.1621 71.2 48C71.2 37.838 62.962 29.6 52.8 29.6C42.638 29.6 34.4 37.838 34.4 48C34.4 58.1621 42.638 66.4 52.8 66.4ZM52.8 68.8C64.2875 68.8 73.6 59.4875 73.6 48C73.6 36.5125 64.2875 27.2 52.8 27.2C41.3125 27.2 32 36.5125 32 48C32 59.4875 41.3125 68.8 52.8 68.8Z"
                    fill="url(#paint3_linear)"
                  ></path>
                  <path
                    data-v-03b17e97=""
                    fillRule="evenodd"
                    clipRule="evenodd"
                    d="M45.5998 43.2C46.9253 43.2 47.9998 42.1255 47.9998 40.8C47.9998 39.4745 46.9253 38.4 45.5998 38.4C44.2743 38.4 43.1998 39.4745 43.1998 40.8C43.1998 42.1255 44.2743 43.2 45.5998 43.2ZM45.5998 45.6C48.2508 45.6 50.3998 43.451 50.3998 40.8C50.3998 38.149 48.2508 36 45.5998 36C42.9488 36 40.7998 38.149 40.7998 40.8C40.7998 43.451 42.9488 45.6 45.5998 45.6Z"
                    fill="url(#paint4_linear)"
                  ></path>
                  <path
                    data-v-03b17e97=""
                    fillRule="evenodd"
                    clipRule="evenodd"
                    d="M60.0002 57.6C61.3257 57.6 62.4002 56.5255 62.4002 55.2C62.4002 53.8745 61.3257 52.8 60.0002 52.8C58.6747 52.8 57.6002 53.8745 57.6002 55.2C57.6002 56.5255 58.6747 57.6 60.0002 57.6ZM60.0002 60C62.6512 60 64.8002 57.851 64.8002 55.2C64.8002 52.5491 62.6512 50.4 60.0002 50.4C57.3492 50.4 55.2002 52.5491 55.2002 55.2C55.2002 57.851 57.3492 60 60.0002 60Z"
                    fill="url(#paint5_linear)"
                  ></path>
                  <path
                    data-v-03b17e97=""
                    fillRule="evenodd"
                    clipRule="evenodd"
                    d="M52.8001 72.8C66.4968 72.8 77.6001 61.6966 77.6001 48C77.6001 34.3033 66.4968 23.2 52.8001 23.2C39.1034 23.2 28.0001 34.3033 28.0001 48C28.0001 61.6966 39.1034 72.8 52.8001 72.8ZM52.8001 75.2C67.8222 75.2 80.0001 63.0221 80.0001 48C80.0001 32.9778 67.8222 20.8 52.8001 20.8C37.778 20.8 25.6001 32.9778 25.6001 48C25.6001 63.0221 37.778 75.2 52.8001 75.2Z"
                    fill="url(#paint6_linear)"
                  ></path>
                  <path
                    data-v-03b17e97=""
                    d="M60.2189 38.4486C60.6875 37.9799 61.4473 37.9799 61.9159 38.4486C62.3845 38.9172 62.3845 39.677 61.9159 40.1456L44.9453 57.1162C44.4767 57.5848 43.7169 57.5848 43.2483 57.1162C42.7797 56.6476 42.7797 55.8878 43.2483 55.4191L60.2189 38.4486Z"
                    fill="url(#paint7_linear)"
                  ></path>
                  <defs data-v-03b17e97="">
                    <linearGradient
                      data-v-03b17e97=""
                      id="paint0_linear"
                      x1="45.4394"
                      y1="5.20001"
                      x2="1.52756"
                      y2="53.5394"
                      gradientUnits="userSpaceOnUse"
                    >
                      <stop data-v-03b17e97="" stopColor="#BD8727"></stop>
                      <stop
                        data-v-03b17e97=""
                        offset="0.483111"
                        stopColor="#FFD574"
                      ></stop>
                      <stop
                        data-v-03b17e97=""
                        offset="0.611179"
                        stopColor="#FECA50"
                      ></stop>
                      <stop
                        data-v-03b17e97=""
                        offset="1"
                        stopColor="#BD8727"
                      ></stop>
                    </linearGradient>
                    <linearGradient
                      data-v-03b17e97=""
                      id="paint1_linear"
                      x1="40"
                      y1="62"
                      x2="34.3136"
                      y2="78.2665"
                      gradientUnits="userSpaceOnUse"
                    >
                      <stop data-v-03b17e97="" stopColor="#BD8727"></stop>
                      <stop
                        data-v-03b17e97=""
                        offset="0.483111"
                        stopColor="#FFD574"
                      ></stop>
                      <stop
                        data-v-03b17e97=""
                        offset="0.611179"
                        stopColor="#FECA50"
                      ></stop>
                      <stop
                        data-v-03b17e97=""
                        offset="1"
                        stopColor="#BD8727"
                      ></stop>
                    </linearGradient>
                    <linearGradient
                      data-v-03b17e97=""
                      id="paint2_linear"
                      x1="18.4002"
                      y1="55.2"
                      x2="15.3852"
                      y2="58.6498"
                      gradientUnits="userSpaceOnUse"
                    >
                      <stop data-v-03b17e97="" stopColor="#BD8727"></stop>
                      <stop
                        data-v-03b17e97=""
                        offset="0.483111"
                        stopColor="#FFD574"
                      ></stop>
                      <stop
                        data-v-03b17e97=""
                        offset="0.611179"
                        stopColor="#FECA50"
                      ></stop>
                      <stop
                        data-v-03b17e97=""
                        offset="1"
                        stopColor="#BD8727"
                      ></stop>
                    </linearGradient>
                    <linearGradient
                      data-v-03b17e97=""
                      id="paint3_linear"
                      x1="73.6"
                      y1="27.2"
                      x2="34.4053"
                      y2="72.0481"
                      gradientUnits="userSpaceOnUse"
                    >
                      <stop data-v-03b17e97="" stopColor="#BD8727"></stop>
                      <stop
                        data-v-03b17e97=""
                        offset="0.483111"
                        stopColor="#FFD574"
                      ></stop>
                      <stop
                        data-v-03b17e97=""
                        offset="0.611179"
                        stopColor="#FECA50"
                      ></stop>
                      <stop
                        data-v-03b17e97=""
                        offset="1"
                        stopColor="#BD8727"
                      ></stop>
                    </linearGradient>
                    <linearGradient
                      data-v-03b17e97=""
                      id="paint4_linear"
                      x1="50.3998"
                      y1="36"
                      x2="41.3549"
                      y2="46.3496"
                      gradientUnits="userSpaceOnUse"
                    >
                      <stop data-v-03b17e97="" stopColor="#BD8727"></stop>
                      <stop
                        data-v-03b17e97=""
                        offset="0.483111"
                        stopColor="#FFD574"
                      ></stop>
                      <stop
                        data-v-03b17e97=""
                        offset="0.611179"
                        stopColor="#FECA50"
                      ></stop>
                      <stop
                        data-v-03b17e97=""
                        offset="1"
                        stopColor="#BD8727"
                      ></stop>
                    </linearGradient>
                    <linearGradient
                      data-v-03b17e97=""
                      id="paint5_linear"
                      x1="64.8002"
                      y1="50.4"
                      x2="55.7553"
                      y2="60.7496"
                      gradientUnits="userSpaceOnUse"
                    >
                      <stop data-v-03b17e97="" stopColor="#BD8727"></stop>
                      <stop
                        data-v-03b17e97=""
                        offset="0.483111"
                        stopColor="#FFD574"
                      ></stop>
                      <stop
                        data-v-03b17e97=""
                        offset="0.611179"
                        stopColor="#FECA50"
                      ></stop>
                      <stop
                        data-v-03b17e97=""
                        offset="1"
                        stopColor="#BD8727"
                      ></stop>
                    </linearGradient>
                    <linearGradient
                      data-v-03b17e97=""
                      id="paint6_linear"
                      x1="80.0001"
                      y1="20.8"
                      x2="28.7455"
                      y2="79.4475"
                      gradientUnits="userSpaceOnUse"
                    >
                      <stop data-v-03b17e97="" stopColor="#BD8727"></stop>
                      <stop
                        data-v-03b17e97=""
                        offset="0.483111"
                        stopColor="#FFD574"
                      ></stop>
                      <stop
                        data-v-03b17e97=""
                        offset="0.611179"
                        stopColor="#FECA50"
                      ></stop>
                      <stop
                        data-v-03b17e97=""
                        offset="1"
                        stopColor="#BD8727"
                      ></stop>
                    </linearGradient>
                    <linearGradient
                      data-v-03b17e97=""
                      id="paint7_linear"
                      x1="62.7644"
                      y1="39.2971"
                      x2="58.7316"
                      y2="36.0242"
                      gradientUnits="userSpaceOnUse"
                    >
                      <stop data-v-03b17e97="" stopColor="#BD8727"></stop>
                      <stop
                        data-v-03b17e97=""
                        offset="0.483111"
                        stopColor="#FFD574"
                      ></stop>
                      <stop
                        data-v-03b17e97=""
                        offset="0.611179"
                        stopColor="#FECA50"
                      ></stop>
                      <stop
                        data-v-03b17e97=""
                        offset="1"
                        stopColor="#BD8727"
                      ></stop>
                    </linearGradient>
                  </defs>
                </svg>
