   <svg
                  data-v-03b17e97=""
                  width="100"
                  height="100"
                  viewBox="0 0 80 80"
                  fill="none"
                  xmlns="http://www.w3.org/2000/svg"
                 
                >
                  <path
                    data-v-03b17e97=""
                    d="M6.07373 23.314H18.4328C19.08 23.314 19.6047 22.7895 19.6047 22.1422C19.6047 21.4948 19.08 20.9703 18.4328 20.9703H6.07373C5.42654 20.9703 4.90186 21.4948 4.90186 22.1422C4.90186 22.7895 5.42639 23.314 6.07373 23.314Z"
                    fill="url(#paint0_linear)"
                  ></path>
                  <path
                    data-v-03b17e97=""
                    d="M18.0091 28.9557H13.127C12.4798 28.9557 11.9551 29.4803 11.9551 30.1276C11.9551 30.775 12.4798 31.2995 13.127 31.2995H18.0091C18.6563 31.2995 19.181 30.775 19.181 30.1276C19.181 29.4803 18.6563 28.9557 18.0091 28.9557Z"
                    fill="url(#paint1_linear)"
                  ></path>
                  <path
                    data-v-03b17e97=""
                    d="M1.17188 37.0823H13.1269C13.7741 37.0823 14.2987 36.5578 14.2987 35.9105C14.2987 35.2631 13.7741 34.7386 13.1269 34.7386H1.17188C0.524687 34.7386 0 35.2631 0 35.9105C0 36.5578 0.524687 37.0823 1.17188 37.0823Z"
                    fill="url(#paint2_linear)"
                  ></path>
                  <path
                    data-v-03b17e97=""
                    d="M19.6047 57.8577C19.6047 57.2103 19.08 56.6858 18.4328 56.6858H6.07373C5.42654 56.6858 4.90186 57.2103 4.90186 57.8577C4.90186 58.505 5.42654 59.0295 6.07373 59.0295H18.4328C19.08 59.0295 19.6047 58.505 19.6047 57.8577Z"
                    fill="url(#paint3_linear)"
                  ></path>
                  <path
                    data-v-03b17e97=""
                    d="M18.0091 48.7004H13.127C12.4798 48.7004 11.9551 49.225 11.9551 49.8723C11.9551 50.5197 12.4798 51.0442 13.127 51.0442H18.0091C18.6563 51.0442 19.181 50.5197 19.181 49.8723C19.181 49.225 18.6563 48.7004 18.0091 48.7004Z"
                    fill="url(#paint4_linear)"
                  ></path>
                  <path
                    data-v-03b17e97=""
                    d="M14.2987 44.0895C14.2987 43.4422 13.7741 42.9177 13.1269 42.9177H1.17188C0.524687 42.9177 0 43.4422 0 44.0895C0 44.7369 0.524687 45.2614 1.17188 45.2614H13.1269C13.7741 45.2614 14.2987 44.7369 14.2987 44.0895Z"
                    fill="url(#paint5_linear)"
                  ></path>
                  <path
                    data-v-03b17e97=""
                    d="M49.9263 25.9109C50.5736 25.9109 51.0981 25.3864 51.0981 24.7391V22.9503C51.0981 22.303 50.5736 21.7784 49.9263 21.7784C49.2789 21.7784 48.7544 22.303 48.7544 22.9503V24.7391C48.7544 25.3864 49.2789 25.9109 49.9263 25.9109Z"
                    fill="url(#paint6_linear)"
                  ></path>
                  <path
                    data-v-03b17e97=""
                    d="M62.8108 27.1153C62.353 26.6578 61.6112 26.6578 61.1535 27.1153L59.8887 28.3801C59.431 28.8379 59.431 29.5798 59.8887 30.0375C60.3466 30.4951 61.0883 30.495 61.546 30.0375L62.8108 28.7726C63.2683 28.315 63.2683 27.5731 62.8108 27.1153Z"
                    fill="url(#paint7_linear)"
                  ></path>
                  <path
                    data-v-03b17e97=""
                    d="M65.1875 38.8281C64.5402 38.8281 64.0156 39.3527 64.0156 40C64.0156 40.6473 64.5402 41.1719 65.1875 41.1719H66.9761C67.6234 41.1719 68.148 40.6473 68.148 40C68.148 39.3527 67.6234 38.8281 66.9761 38.8281H65.1875Z"
                    fill="url(#paint8_linear)"
                  ></path>
                  <path
                    data-v-03b17e97=""
                    d="M61.546 49.9623C61.0882 49.5048 60.3463 49.5048 59.8887 49.9623C59.431 50.4201 59.431 51.162 59.8887 51.6196L61.1535 52.8845C61.6115 53.3421 62.3532 53.342 62.8108 52.8845C63.2685 52.4266 63.2685 51.6848 62.8108 51.2271L61.546 49.9623Z"
                    fill="url(#paint9_linear)"
                  ></path>
                  <path
                    data-v-03b17e97=""
                    d="M48.7544 55.2609V57.0495C48.7544 57.6968 49.2789 58.2213 49.9263 58.2213C50.5736 58.2213 51.0981 57.6968 51.0981 57.0495V55.2609C51.0981 54.6135 50.5736 54.089 49.9263 54.089C49.2789 54.089 48.7544 54.6137 48.7544 55.2609Z"
                    fill="url(#paint10_linear)"
                  ></path>
                  <path
                    data-v-03b17e97=""
                    d="M38.3068 49.9623L37.042 51.2271C36.5843 51.6849 36.5843 52.4268 37.042 52.8845C37.4998 53.3421 38.2417 53.342 38.6992 52.8845L39.964 51.6196C40.4217 51.1618 40.4217 50.4199 39.964 49.9623C39.5065 49.5048 38.7645 49.5048 38.3068 49.9623Z"
                    fill="url(#paint11_linear)"
                  ></path>
                  <path
                    data-v-03b17e97=""
                    d="M32.8765 38.8281C32.2293 38.8281 31.7046 39.3527 31.7046 40C31.7046 40.6473 32.2293 41.1719 32.8765 41.1719H34.6652C35.3124 41.1719 35.8371 40.6473 35.8371 40C35.8371 39.3527 35.3124 38.8281 34.6652 38.8281H32.8765Z"
                    fill="url(#paint12_linear)"
                  ></path>
                  <path
                    data-v-03b17e97=""
                    d="M39.964 28.3801L38.6992 27.1153C38.2415 26.6578 37.4995 26.6578 37.042 27.1153C36.5843 27.5731 36.5843 28.315 37.042 28.7726L38.3068 30.0375C38.7646 30.4951 39.5065 30.495 39.964 30.0375C40.4217 29.5798 40.4217 28.8379 39.964 28.3801Z"
                    fill="url(#paint13_linear)"
                  ></path>
                  <path
                    data-v-03b17e97=""
                    d="M56.2278 40C56.2278 39.3527 55.7033 38.8281 55.056 38.8281H51.0981V30.1275C51.0981 29.4802 50.5736 28.9556 49.9263 28.9556C49.2789 28.9556 48.7544 29.4802 48.7544 30.1275V40C48.7544 40.6473 49.2789 41.1719 49.9263 41.1719H55.056C55.7031 41.1719 56.2278 40.6473 56.2278 40Z"
                    fill="url(#paint14_linear)"
                  ></path>
                  <path
                    data-v-03b17e97=""
                    d="M72.1472 39.8066C72.7933 39.7673 73.2851 39.2119 73.2459 38.5659C72.5004 26.2686 62.2573 16.6356 49.9264 16.6356C37.0433 16.6356 26.562 27.1169 26.562 40.0002C26.562 52.8833 37.0433 63.3645 49.9264 63.3645C61.4684 63.3645 71.317 54.908 73.0303 43.4963C73.1264 42.8563 72.6854 42.2595 72.0453 42.1634C71.4068 42.0677 70.8086 42.5081 70.7125 43.1484C69.1734 53.4006 60.3209 61.0209 49.9264 61.0209C38.3356 61.0209 28.9058 51.5911 28.9058 40.0003C28.9058 28.4095 38.3356 18.9795 49.9264 18.9795C61.0203 18.9795 70.2358 27.6453 70.9064 38.7081C70.9454 39.3537 71.5004 39.8441 72.1472 39.8066Z"
                    fill="url(#paint15_linear)"
                  ></path>
                  <path
                    data-v-03b17e97=""
                    d="M49.9263 9.92639C45.8043 9.92639 41.7657 10.7815 38.0485 12.3808H17.3721C16.7249 12.3808 16.2002 12.9053 16.2002 13.5526C16.2002 14.2 16.7249 14.7245 17.3721 14.7245H33.6397C31.4402 16.1401 29.4154 17.8476 27.63 19.8189C27.1957 20.2984 27.2322 21.0395 27.7119 21.474C28.1918 21.9086 28.9325 21.8719 29.3672 21.3922C34.6175 15.595 42.1111 12.2701 49.9263 12.2701C65.2166 12.2701 77.6563 24.7097 77.6563 40C77.6563 55.2901 65.2168 67.7298 49.9263 67.7298C34.636 67.7298 22.1964 55.2903 22.1964 40C22.1964 34.6456 23.726 29.4487 26.6194 24.9709C26.9707 24.4273 26.8147 23.702 26.2711 23.3508C25.7275 22.9997 25.0022 23.1553 24.6508 23.699C21.5118 28.5565 19.8527 34.1933 19.8527 40C19.8527 50.5884 25.3536 59.9153 33.6472 65.2754H17.3722C16.725 65.2754 16.2004 65.8 16.2004 66.4473C16.2004 67.0947 16.725 67.6192 17.3722 67.6192H38.0324C41.6824 69.1972 45.7038 70.0736 49.9265 70.0736C66.509 70.0736 80.0001 56.5826 80.0001 40C80.0001 23.4173 66.509 9.92639 49.9263 9.92639Z"
                    fill="url(#paint16_linear)"
                  ></path>
                  <defs data-v-03b17e97="">
                    <linearGradient
                      data-v-03b17e97=""
                      id="paint0_linear"
                      x1="19.6047"
                      y1="20.9703"
                      x2="18.9956"
                      y2="25.342"
                      gradientUnits="userSpaceOnUse"
                    >
                      <stop data-v-03b17e97="" stopColor="#BD8727"></stop>
                      <stop
                        data-v-03b17e97=""
                        offset="0.483111"
                        stopColor="#FFD574"
                      ></stop>
                      <stop
                        data-v-03b17e97=""
                        offset="0.611179"
                        stopColor="#FECA50"
                      ></stop>
                      <stop
                        data-v-03b17e97=""
                        offset="1"
                        stopColor="#BD8727"
                      ></stop>
                    </linearGradient>
                    <linearGradient
                      data-v-03b17e97=""
                      id="paint1_linear"
                      x1="19.181"
                      y1="28.9557"
                      x2="18.0117"
                      y2="33.0809"
                      gradientUnits="userSpaceOnUse"
                    >
                      <stop data-v-03b17e97="" stopColor="#BD8727"></stop>
                      <stop
                        data-v-03b17e97=""
                        offset="0.483111"
                        stopColor="#FFD574"
                      ></stop>
                      <stop
                        data-v-03b17e97=""
                        offset="0.611179"
                        stopColor="#FECA50"
                      ></stop>
                      <stop
                        data-v-03b17e97=""
                        offset="1"
                        stopColor="#BD8727"
                      ></stop>
                    </linearGradient>
                    <linearGradient
                      data-v-03b17e97=""
                      id="paint2_linear"
                      x1="14.2987"
                      y1="34.7386"
                      x2="13.6732"
                      y2="39.1056"
                      gradientUnits="userSpaceOnUse"
                    >
                      <stop data-v-03b17e97="" stopColor="#BD8727"></stop>
                      <stop
                        data-v-03b17e97=""
                        offset="0.483111"
                        stopColor="#FFD574"
                      ></stop>
                      <stop
                        data-v-03b17e97=""
                        offset="0.611179"
                        stopColor="#FECA50"
                      ></stop>
                      <stop
                        data-v-03b17e97=""
                        offset="1"
                        stopColor="#BD8727"
                      ></stop>
                    </linearGradient>
                    <linearGradient
                      data-v-03b17e97=""
                      id="paint3_linear"
                      x1="19.6047"
                      y1="56.6858"
                      x2="18.9956"
                      y2="61.0576"
                      gradientUnits="userSpaceOnUse"
                    >
                      <stop data-v-03b17e97="" stopColor="#BD8727"></stop>
                      <stop
                        data-v-03b17e97=""
                        offset="0.483111"
                        stopColor="#FFD574"
                      ></stop>
                      <stop
                        data-v-03b17e97=""
                        offset="0.611179"
                        stopColor="#FECA50"
                      ></stop>
                      <stop
                        data-v-03b17e97=""
                        offset="1"
                        stopColor="#BD8727"
                      ></stop>
                    </linearGradient>
                    <linearGradient
                      data-v-03b17e97=""
                      id="paint4_linear"
                      x1="19.181"
                      y1="48.7004"
                      x2="18.0117"
                      y2="52.8256"
                      gradientUnits="userSpaceOnUse"
                    >
                      <stop data-v-03b17e97="" stopColor="#BD8727"></stop>
                      <stop
                        data-v-03b17e97=""
                        offset="0.483111"
                        stopColor="#FFD574"
                      ></stop>
                      <stop
                        data-v-03b17e97=""
                        offset="0.611179"
                        stopColor="#FECA50"
                      ></stop>
                      <stop
                        data-v-03b17e97=""
                        offset="1"
                        stopColor="#BD8727"
                      ></stop>
                    </linearGradient>
                    <linearGradient
                      data-v-03b17e97=""
                      id="paint5_linear"
                      x1="14.2987"
                      y1="42.9177"
                      x2="13.6732"
                      y2="47.2847"
                      gradientUnits="userSpaceOnUse"
                    >
                      <stop data-v-03b17e97="" stopColor="#BD8727"></stop>
                      <stop
                        data-v-03b17e97=""
                        offset="0.483111"
                        stopColor="#FFD574"
                      ></stop>
                      <stop
                        data-v-03b17e97=""
                        offset="0.611179"
                        stopColor="#FECA50"
                      ></stop>
                      <stop
                        data-v-03b17e97=""
                        offset="1"
                        stopColor="#BD8727"
                      ></stop>
                    </linearGradient>
                    <linearGradient
                      data-v-03b17e97=""
                      id="paint6_linear"
                      x1="51.0981"
                      y1="21.7784"
                      x2="47.5099"
                      y2="24.1071"
                      gradientUnits="userSpaceOnUse"
                    >
                      <stop data-v-03b17e97="" stopColor="#BD8727"></stop>
                      <stop
                        data-v-03b17e97=""
                        offset="0.483111"
                        stopColor="#FFD574"
                      ></stop>
                      <stop
                        data-v-03b17e97=""
                        offset="0.611179"
                        stopColor="#FECA50"
                      ></stop>
                      <stop
                        data-v-03b17e97=""
                        offset="1"
                        stopColor="#BD8727"
                      ></stop>
                    </linearGradient>
                    <linearGradient
                      data-v-03b17e97=""
                      id="paint7_linear"
                      x1="63.154"
                      y1="26.7722"
                      x2="59.7541"
                      y2="30.6625"
                      gradientUnits="userSpaceOnUse"
                    >
                      <stop data-v-03b17e97="" stopColor="#BD8727"></stop>
                      <stop
                        data-v-03b17e97=""
                        offset="0.483111"
                        stopColor="#FFD574"
                      ></stop>
                      <stop
                        data-v-03b17e97=""
                        offset="0.611179"
                        stopColor="#FECA50"
                      ></stop>
                      <stop
                        data-v-03b17e97=""
                        offset="1"
                        stopColor="#BD8727"
                      ></stop>
                    </linearGradient>
                    <linearGradient
                      data-v-03b17e97=""
                      id="paint8_linear"
                      x1="68.148"
                      y1="38.8281"
                      x2="66.3746"
                      y2="42.4057"
                      gradientUnits="userSpaceOnUse"
                    >
                      <stop data-v-03b17e97="" stopColor="#BD8727"></stop>
                      <stop
                        data-v-03b17e97=""
                        offset="0.483111"
                        stopColor="#FFD574"
                      ></stop>
                      <stop
                        data-v-03b17e97=""
                        offset="0.611179"
                        stopColor="#FECA50"
                      ></stop>
                      <stop
                        data-v-03b17e97=""
                        offset="1"
                        stopColor="#BD8727"
                      ></stop>
                    </linearGradient>
                    <linearGradient
                      data-v-03b17e97=""
                      id="paint9_linear"
                      x1="63.1541"
                      y1="49.6191"
                      x2="59.7543"
                      y2="53.5096"
                      gradientUnits="userSpaceOnUse"
                    >
                      <stop data-v-03b17e97="" stopColor="#BD8727"></stop>
                      <stop
                        data-v-03b17e97=""
                        offset="0.483111"
                        stopColor="#FFD574"
                      ></stop>
                      <stop
                        data-v-03b17e97=""
                        offset="0.611179"
                        stopColor="#FECA50"
                      ></stop>
                      <stop
                        data-v-03b17e97=""
                        offset="1"
                        stopColor="#BD8727"
                      ></stop>
                    </linearGradient>
                    <linearGradient
                      data-v-03b17e97=""
                      id="paint10_linear"
                      x1="51.0981"
                      y1="54.089"
                      x2="47.51"
                      y2="56.4176"
                      gradientUnits="userSpaceOnUse"
                    >
                      <stop data-v-03b17e97="" stopColor="#BD8727"></stop>
                      <stop
                        data-v-03b17e97=""
                        offset="0.483111"
                        stopColor="#FFD574"
                      ></stop>
                      <stop
                        data-v-03b17e97=""
                        offset="0.611179"
                        stopColor="#FECA50"
                      ></stop>
                      <stop
                        data-v-03b17e97=""
                        offset="1"
                        stopColor="#BD8727"
                      ></stop>
                    </linearGradient>
                    <linearGradient
                      data-v-03b17e97=""
                      id="paint11_linear"
                      x1="40.3072"
                      y1="49.6191"
                      x2="36.9074"
                      y2="53.5094"
                      gradientUnits="userSpaceOnUse"
                    >
                      <stop data-v-03b17e97="" stopColor="#BD8727"></stop>
                      <stop
                        data-v-03b17e97=""
                        offset="0.483111"
                        stopColor="#FFD574"
                      ></stop>
                      <stop
                        data-v-03b17e97=""
                        offset="0.611179"
                        stopColor="#FECA50"
                      ></stop>
                      <stop
                        data-v-03b17e97=""
                        offset="1"
                        stopColor="#BD8727"
                      ></stop>
                    </linearGradient>
                    <linearGradient
                      data-v-03b17e97=""
                      id="paint12_linear"
                      x1="35.8371"
                      y1="38.8281"
                      x2="34.0638"
                      y2="42.4058"
                      gradientUnits="userSpaceOnUse"
                    >
                      <stop data-v-03b17e97="" stopColor="#BD8727"></stop>
                      <stop
                        data-v-03b17e97=""
                        offset="0.483111"
                        stopColor="#FFD574"
                      ></stop>
                      <stop
                        data-v-03b17e97=""
                        offset="0.611179"
                        stopColor="#FECA50"
                      ></stop>
                      <stop
                        data-v-03b17e97=""
                        offset="1"
                        stopColor="#BD8727"
                      ></stop>
                    </linearGradient>
                    <linearGradient
                      data-v-03b17e97=""
                      id="paint13_linear"
                      x1="40.3072"
                      y1="26.7722"
                      x2="36.9074"
                      y2="30.6624"
                      gradientUnits="userSpaceOnUse"
                    >
                      <stop data-v-03b17e97="" stopColor="#BD8727"></stop>
                      <stop
                        data-v-03b17e97=""
                        offset="0.483111"
                        stopColor="#FFD574"
                      ></stop>
                      <stop
                        data-v-03b17e97=""
                        offset="0.611179"
                        stopColor="#FECA50"
                      ></stop>
                      <stop
                        data-v-03b17e97=""
                        offset="1"
                        stopColor="#BD8727"
                      ></stop>
                    </linearGradient>
                    <linearGradient
                      data-v-03b17e97=""
                      id="paint14_linear"
                      x1="56.2278"
                      y1="28.9556"
                      x2="45.3148"
                      y2="36.5948"
                      gradientUnits="userSpaceOnUse"
                    >
                      <stop data-v-03b17e97="" stopColor="#BD8727"></stop>
                      <stop
                        data-v-03b17e97=""
                        offset="0.483111"
                        stopColor="#FFD574"
                      ></stop>
                      <stop
                        data-v-03b17e97=""
                        offset="0.611179"
                        stopColor="#FECA50"
                      ></stop>
                      <stop
                        data-v-03b17e97=""
                        offset="1"
                        stopColor="#BD8727"
                      ></stop>
                    </linearGradient>
                    <linearGradient
                      data-v-03b17e97=""
                      id="paint15_linear"
                      x1="73.2481"
                      y1="16.6356"
                      x2="29.2156"
                      y2="66.9731"
                      gradientUnits="userSpaceOnUse"
                    >
                      <stop data-v-03b17e97="" stopColor="#BD8727"></stop>
                      <stop
                        data-v-03b17e97=""
                        offset="0.483111"
                        stopColor="#FFD574"
                      ></stop>
                      <stop
                        data-v-03b17e97=""
                        offset="0.611179"
                        stopColor="#FECA50"
                      ></stop>
                      <stop
                        data-v-03b17e97=""
                        offset="1"
                        stopColor="#BD8727"
                      ></stop>
                    </linearGradient>
                    <linearGradient
                      data-v-03b17e97=""
                      id="paint16_linear"
                      x1="80.0001"
                      y1="9.92639"
                      x2="23.8716"
                      y2="78.051"
                      gradientUnits="userSpaceOnUse"
                    >
                      <stop data-v-03b17e97="" stopColor="#BD8727"></stop>
                      <stop
                        data-v-03b17e97=""
                        offset="0.483111"
                        stopColor="#FFD574"
                      ></stop>
                      <stop
                        data-v-03b17e97=""
                        offset="0.611179"
                        stopColor="#FECA50"
                      ></stop>
                      <stop
                        data-v-03b17e97=""
                        offset="1"
                        stopColor="#BD8727"
                      ></stop>
                    </linearGradient>
                  </defs>
                </svg>