<svg width="10" height="11" viewBox="0 0 10 11" fill="none" xmlns="http://www.w3.org/2000/svg">
<path d="M5.5 4.44141H4.5V3.44141H5.5V4.44141ZM5.5 8.44141H4.5V5.44141H5.5V8.44141ZM5 0.941406C4.34339 0.941406 3.69321 1.07074 3.08658 1.32201C2.47995 1.57328 1.92876 1.94158 1.46447 2.40587C0.526784 3.34355 0 4.61532 0 5.94141C0 7.26749 0.526784 8.53926 1.46447 9.47694C1.92876 9.94123 2.47995 10.3095 3.08658 10.5608C3.69321 10.8121 4.34339 10.9414 5 10.9414C6.32608 10.9414 7.59785 10.4146 8.53553 9.47694C9.47322 8.53926 10 7.26749 10 5.94141C10 5.2848 9.87067 4.63462 9.6194 4.02799C9.36812 3.42136 8.99983 2.87017 8.53553 2.40587C8.07124 1.94158 7.52005 1.57328 6.91342 1.32201C6.30679 1.07074 5.65661 0.941406 5 0.941406Z" fill="#C9CACD"/>
</svg>
